<svg width="86" height="4" viewBox="0 0 86 4" fill="none" 
    xmlns="http://www.w3.org/2000/svg">
    <path d="M83.7467 0.42797V1.77298H83.8108C84.0172 1.77298 84.1737 1.70894 84.2662 1.57372C84.3587 1.44563 84.4228 1.25348 84.4441 0.997289H84.5367V2.71948H84.4441C84.4228 2.53445 84.3801 2.37789 84.3232 2.25691C84.2591 2.13593 84.188 2.05764 84.1026 2.01495C84.0172 1.97225 83.9033 1.9509 83.7396 1.9509V2.87604C83.7396 3.06107 83.7467 3.16781 83.761 3.21051C83.7752 3.25321 83.8037 3.28168 83.8464 3.31015C83.8891 3.33861 83.9531 3.34573 84.0527 3.34573H84.252C84.558 3.34573 84.8071 3.27456 84.9921 3.13223C85.1771 2.9899 85.3124 2.77641 85.3906 2.48463H85.4832L85.3337 3.53076H82.4871V3.44536H82.5939C82.6864 3.44536 82.7647 3.43113 82.8216 3.39555C82.8643 3.3742 82.8928 3.3315 82.9212 3.27456C82.9355 3.23898 82.9497 3.13224 82.9497 2.96856V0.798028C82.9497 0.648582 82.9426 0.556066 82.9354 0.520483C82.9212 0.463551 82.8927 0.420851 82.8429 0.385268C82.7789 0.34257 82.7006 0.314104 82.5939 0.314104H82.4871V0.235824H85.2412V1.21078H85.1487C85.0989 0.968823 85.0348 0.805143 84.9494 0.698395C84.864 0.591648 84.743 0.520482 84.5936 0.470667C84.5011 0.442201 84.3374 0.42797 84.0883 0.42797H83.7467ZM78.7154 0.420851V1.85838H78.8506C79.0783 1.85838 79.242 1.83703 79.3559 1.79434C79.4697 1.75164 79.5551 1.68047 79.6192 1.57372C79.6832 1.46697 79.7188 1.32465 79.7188 1.15385C79.7188 0.904775 79.6619 0.719743 79.5409 0.598763C79.427 0.477783 79.2349 0.420851 78.9716 0.420851H78.7154ZM78.7154 2.02918V2.96144C78.7154 3.13935 78.7296 3.25321 78.7509 3.29591C78.7723 3.34573 78.815 3.38131 78.8648 3.40266C78.9217 3.43113 79.0214 3.44536 79.1708 3.44536V3.53076H77.4842V3.44536C77.6337 3.44536 77.7404 3.43113 77.7973 3.40266C77.8543 3.37419 77.8899 3.33861 77.9112 3.29591C77.9326 3.25321 77.9468 3.13935 77.9468 2.96144V0.812257C77.9468 0.634345 77.9326 0.520485 77.9112 0.477786C77.8899 0.427971 77.8472 0.392388 77.7973 0.371039C77.7404 0.342573 77.6408 0.328337 77.4913 0.328337V0.235824H79.0214C79.4199 0.235824 79.7117 0.264291 79.8967 0.321223C80.0817 0.378155 80.2312 0.477784 80.3522 0.627231C80.466 0.776677 80.5301 0.947472 80.5301 1.14673C80.5301 1.38869 80.4447 1.58796 80.2668 1.75163C80.1529 1.85127 79.9963 1.92955 79.7971 1.97936L80.587 3.09665C80.6938 3.23898 80.7649 3.33149 80.8076 3.36708C80.8717 3.41689 80.95 3.44536 81.0425 3.45248V3.54499H80.0035L78.9431 2.04341H78.7154V2.02918ZM74.0114 0.42797V1.77298H74.0754C74.2818 1.77298 74.4384 1.70894 74.5309 1.57372C74.6234 1.44563 74.6874 1.25348 74.7088 0.997289H74.8013V2.71948H74.7088C74.6874 2.53445 74.6447 2.37789 74.5878 2.25691C74.5238 2.13593 74.4526 2.05764 74.3672 2.01495C74.2818 1.97225 74.1679 1.9509 74.0042 1.9509V2.87604C74.0042 3.06107 74.0114 3.16781 74.0256 3.21051C74.0398 3.25321 74.0683 3.28168 74.111 3.31015C74.1537 3.33861 74.2177 3.34573 74.3174 3.34573H74.5166C74.8226 3.34573 75.0717 3.27456 75.2568 3.13223C75.4418 2.9899 75.577 2.77641 75.6553 2.48463H75.7478L75.5983 3.53076H72.7517V3.44536H72.8585C72.951 3.44536 73.0293 3.43113 73.0862 3.39555C73.1289 3.3742 73.1574 3.3315 73.1859 3.27456C73.2001 3.23898 73.2143 3.13224 73.2143 2.96856V0.798028C73.2143 0.648582 73.2072 0.556066 73.2001 0.520483C73.1858 0.463551 73.1574 0.420851 73.1076 0.385268C73.0435 0.34257 72.9652 0.314104 72.8585 0.314104H72.7517V0.235824H75.5058V1.21078H75.4133C75.3635 0.968823 75.2994 0.805143 75.2141 0.698395C75.1287 0.591648 75.0077 0.520482 74.8582 0.470667C74.7657 0.442201 74.602 0.42797 74.353 0.42797H74.0114ZM68.9231 2.40635L69.8198 0.235824H71.1505V0.321223H71.0509C70.9513 0.321223 70.8801 0.335457 70.8161 0.371039C70.7734 0.392388 70.7449 0.435086 70.7164 0.484901C70.7022 0.5276 70.688 0.62723 70.688 0.790909V2.96144C70.688 3.13223 70.6951 3.23898 70.7164 3.28168C70.7378 3.32438 70.7734 3.35996 70.8232 3.39555C70.8801 3.43113 70.9513 3.44536 71.0438 3.44536H71.1505V3.53076H69.4355V3.44536H69.5422C69.6418 3.44536 69.713 3.43113 69.7771 3.39555C69.8197 3.3742 69.8482 3.3315 69.8767 3.27456C69.8909 3.23898 69.9052 3.13224 69.9052 2.96856V0.527598L68.6384 3.53076H68.5815L67.3005 0.556066V2.86892C67.3005 3.0326 67.3076 3.13223 67.3147 3.16782C67.3361 3.2461 67.3788 3.31726 67.45 3.36708C67.5211 3.41689 67.6279 3.44536 67.7844 3.44536V3.53076H66.66V3.44536H66.6956C66.7668 3.44536 66.8379 3.43824 66.902 3.40977C66.966 3.38131 67.0159 3.35285 67.0443 3.31015C67.0799 3.26745 67.1012 3.21052 67.1226 3.13223C67.1226 3.11088 67.1297 3.0326 67.1297 2.88316V0.798028C67.1297 0.627232 67.1226 0.520485 67.1012 0.477786C67.087 0.435087 67.0443 0.399502 66.9945 0.36392C66.9376 0.328337 66.8664 0.314104 66.7739 0.314104H66.6671V0.235824H67.9908L68.9231 2.40635ZM62.625 1.94378V2.96856C62.625 3.13935 62.6321 3.2461 62.6534 3.2888C62.6748 3.3315 62.7104 3.36708 62.7602 3.40266C62.8171 3.43824 62.8883 3.45248 62.9808 3.45248H63.0875V3.53787H61.3725V3.45248H61.4792C61.5717 3.45248 61.65 3.43824 61.7069 3.40266C61.7496 3.38131 61.7781 3.33861 61.8066 3.28168C61.8208 3.2461 61.835 3.13935 61.835 2.97567V0.805143C61.835 0.634347 61.8279 0.5276 61.8066 0.484901C61.7852 0.442202 61.7496 0.406621 61.6998 0.371039C61.6429 0.335457 61.5717 0.321223 61.4792 0.321223H61.3725V0.235824H63.0875V0.321223H62.9808C62.8883 0.321223 62.81 0.335457 62.7531 0.371039C62.7104 0.392388 62.6819 0.435084 62.6534 0.492016C62.6392 0.527598 62.625 0.634349 62.625 0.798028V1.73029H63.7921V0.798028C63.7921 0.627232 63.785 0.520485 63.7636 0.477786C63.7423 0.435087 63.7067 0.399502 63.6569 0.36392C63.5999 0.328337 63.5288 0.314104 63.4363 0.314104H63.3295V0.235824H65.0446V0.321223H64.9378C64.8382 0.321223 64.767 0.335457 64.7101 0.371039C64.6674 0.392388 64.6318 0.435084 64.6105 0.492016C64.5962 0.527598 64.582 0.634349 64.582 0.798028V2.96856C64.582 3.13935 64.5891 3.2461 64.6105 3.2888C64.6318 3.3315 64.6674 3.36708 64.7172 3.40266C64.7742 3.43824 64.8453 3.45248 64.9378 3.45248H65.0446V3.53787H63.3295V3.45248H63.4363C63.5359 3.45248 63.6071 3.43824 63.664 3.40266C63.7067 3.38131 63.7423 3.33861 63.7636 3.28168C63.7778 3.2461 63.7921 3.13935 63.7921 2.97567V1.94378H62.625ZM59.4297 0.164659L59.4581 1.2606H59.3585C59.3087 0.983057 59.1948 0.762442 59.0098 0.598763C58.8248 0.427967 58.6255 0.349686 58.412 0.349686C58.2483 0.349686 58.1131 0.392387 58.0206 0.484901C57.921 0.570299 57.8783 0.677045 57.8783 0.790909C57.8783 0.862074 57.8925 0.926123 57.9281 0.983055C57.9779 1.06134 58.0491 1.1325 58.1558 1.21078C58.2341 1.2606 58.4049 1.36023 58.6824 1.49544C59.0667 1.68759 59.33 1.8655 59.4653 2.02918C59.6005 2.19997 59.6645 2.39212 59.6645 2.60561C59.6645 2.88316 59.5578 3.118 59.3443 3.31726C59.1308 3.51652 58.8603 3.61615 58.5259 3.61615C58.4191 3.61615 58.3266 3.60192 58.2341 3.58769C58.1416 3.56634 58.0277 3.53076 57.8854 3.46671C57.8071 3.43113 57.7431 3.41689 57.6932 3.41689C57.6505 3.41689 57.6078 3.43113 57.558 3.46671C57.5082 3.50229 57.4726 3.55211 57.4442 3.61615H57.3588V2.37077H57.4442C57.5153 2.71948 57.6505 2.98279 57.8569 3.16782C58.0633 3.35285 58.2768 3.44536 58.5116 3.44536C58.6967 3.44536 58.839 3.39554 58.9457 3.29591C59.0525 3.19628 59.1094 3.08242 59.1094 2.95432C59.1094 2.87604 59.0881 2.80487 59.0454 2.72659C59.0027 2.65543 58.9386 2.58426 58.8603 2.52021C58.775 2.45617 58.6255 2.37077 58.412 2.26402C58.1131 2.11458 57.8996 1.9936 57.7644 1.88685C57.6363 1.7801 57.5367 1.66624 57.4655 1.53814C57.3943 1.41004 57.3588 1.26772 57.3588 1.11827C57.3588 0.85496 57.4584 0.634347 57.6505 0.449319C57.8427 0.26429 58.0847 0.171774 58.3764 0.171774C58.4832 0.171774 58.5899 0.186007 58.6896 0.207356C58.7678 0.228706 58.8603 0.264288 58.9671 0.314104C59.0738 0.363919 59.1521 0.392388 59.1948 0.392388C59.2375 0.392388 59.2731 0.378155 59.2945 0.356805C59.3158 0.328339 59.3443 0.271405 59.3656 0.171774H59.4297V0.164659ZM54.0709 2.41347L53.5799 1.28906L53.0746 2.41347H54.0709ZM54.1492 2.59138H52.9964L52.854 2.91162C52.8113 3.01837 52.7829 3.11089 52.7829 3.18205C52.7829 3.27456 52.8184 3.34573 52.8967 3.38843C52.9394 3.41689 53.0462 3.43112 53.217 3.44536V3.53076H52.121V3.44536C52.242 3.42401 52.3345 3.37419 52.4128 3.29591C52.4911 3.21763 52.5836 3.04684 52.6975 2.79064L53.8717 0.164659H53.9215L55.11 2.86892C55.2238 3.12512 55.3163 3.2888 55.3875 3.35996C55.4444 3.40978 55.5227 3.43824 55.6223 3.44536V3.53076H54.0282V3.44536H54.0923C54.2204 3.44536 54.3129 3.42401 54.3627 3.38843C54.3983 3.35996 54.4125 3.32438 54.4125 3.27456C54.4125 3.2461 54.4054 3.21763 54.3983 3.18205C54.3983 3.16782 54.3698 3.10377 54.3271 2.99702L54.1492 2.59138ZM50.3988 0.164659V1.3033H50.3063C50.2352 1.0044 50.1071 0.776676 49.9078 0.612997C49.7157 0.456434 49.495 0.371039 49.246 0.371039C49.0396 0.371039 48.8546 0.427971 48.6838 0.548951C48.513 0.669931 48.3849 0.819377 48.3066 1.01152C48.207 1.25348 48.1571 1.53103 48.1571 1.82992C48.1571 2.12169 48.1927 2.39212 48.271 2.63408C48.3422 2.87604 48.4631 3.06107 48.6197 3.18205C48.7763 3.30303 48.9827 3.36708 49.2317 3.36708C49.4381 3.36708 49.6303 3.32438 49.8011 3.23186C49.9718 3.13935 50.1569 2.98279 50.3419 2.76218V3.04684C50.1569 3.23898 49.9647 3.38131 49.7655 3.46671C49.5662 3.55211 49.3314 3.59481 49.068 3.59481C48.7193 3.59481 48.4062 3.52364 48.1358 3.38131C47.8654 3.23898 47.6519 3.03972 47.5024 2.77641C47.353 2.5131 47.2818 2.22844 47.2818 1.93667C47.2818 1.62354 47.3672 1.32465 47.5309 1.03999C47.6946 0.755327 47.9152 0.541831 48.1927 0.385268C48.4703 0.228706 48.7692 0.150425 49.0823 0.150425C49.31 0.150425 49.5591 0.200243 49.8153 0.299874C49.9647 0.356806 50.0572 0.385268 50.0999 0.385268C50.1498 0.385268 50.1996 0.36392 50.2352 0.328337C50.2707 0.292755 50.2992 0.228708 50.3063 0.143311H50.3988V0.164659ZM41.3751 0.235824L42.9977 2.27826V0.862074C42.9977 0.662812 42.9692 0.527598 42.9123 0.456433C42.834 0.363919 42.7059 0.314106 42.5209 0.321223V0.235824H43.6097V0.321223C43.4674 0.342572 43.3749 0.363922 43.3322 0.392388C43.2823 0.420853 43.2468 0.470669 43.2183 0.534717C43.1898 0.598766 43.1756 0.71263 43.1756 0.869193V3.60904H43.0902L40.8699 0.862074V2.96144C40.8699 3.15358 40.9125 3.28168 40.9979 3.34573C41.0833 3.40978 41.183 3.44536 41.2968 3.44536H41.3751V3.53076H40.2009V3.44536C40.3859 3.44536 40.5069 3.40978 40.5781 3.33149C40.6492 3.26033 40.6848 3.13223 40.6848 2.95432V0.627231L40.6137 0.541832C40.5425 0.449318 40.4856 0.392386 40.4286 0.36392C40.3788 0.335454 40.3005 0.32122 40.2009 0.314104V0.235824H41.3751ZM37.1195 2.41347L36.6284 1.28906L36.1231 2.41347H37.1195ZM37.1977 2.59138H36.0449L35.9025 2.91162C35.8598 3.01837 35.8314 3.11089 35.8314 3.18205C35.8314 3.27456 35.867 3.34573 35.9452 3.38843C35.9879 3.41689 36.0947 3.43112 36.2655 3.44536V3.53076H35.1695V3.44536C35.2905 3.42401 35.383 3.37419 35.4613 3.29591C35.5396 3.21763 35.6321 3.04684 35.746 2.79064L36.9202 0.164659H36.97L38.1585 2.86181C38.2723 3.118 38.3648 3.28168 38.436 3.35284C38.4929 3.40266 38.5712 3.43113 38.6708 3.43824V3.52364H37.0768V3.43824H37.1408C37.2689 3.43824 37.3614 3.41689 37.4112 3.38131C37.4468 3.35285 37.461 3.31726 37.461 3.26744C37.461 3.23898 37.4539 3.21051 37.4468 3.17493C37.4468 3.1607 37.4183 3.09665 37.3756 2.9899L37.1977 2.59138ZM33.5968 3.44536V3.53076H31.8817V3.44536H31.9885C32.081 3.44536 32.1593 3.43113 32.2162 3.39555C32.2589 3.3742 32.2874 3.3315 32.3158 3.27456C32.3301 3.23898 32.3443 3.13224 32.3443 2.96856V0.798028C32.3443 0.627232 32.3372 0.520485 32.3158 0.477786C32.2945 0.435087 32.2589 0.399502 32.2091 0.36392C32.1521 0.328337 32.081 0.314104 31.9885 0.314104H31.8817V0.235824H33.5968V0.321223H33.49C33.3975 0.321223 33.3192 0.335457 33.2623 0.371039C33.2196 0.392388 33.1911 0.435084 33.1627 0.492016C33.1484 0.527598 33.1342 0.634349 33.1342 0.798028V2.96856C33.1342 3.13935 33.1413 3.2461 33.1627 3.2888C33.184 3.3315 33.2196 3.36708 33.2694 3.40266C33.3264 3.43824 33.3975 3.45248 33.49 3.45248H33.5968V3.44536ZM30.1951 2.37788L30.0741 3.53076H27.1564V3.44536H27.2631C27.3556 3.44536 27.4339 3.43113 27.4908 3.39555C27.5335 3.3742 27.562 3.3315 27.5905 3.27456C27.6047 3.23898 27.6189 3.13224 27.6189 2.96856V0.798028C27.6189 0.627232 27.6118 0.520485 27.5905 0.477786C27.5691 0.435087 27.5335 0.399502 27.4837 0.36392C27.4268 0.328337 27.3556 0.314104 27.2631 0.314104H27.1564V0.235824H28.907V0.321223H28.7647C28.6722 0.321223 28.5939 0.335457 28.537 0.371039C28.4943 0.392388 28.4587 0.435084 28.4373 0.492016C28.4231 0.527598 28.4089 0.634349 28.4089 0.798028V2.89739C28.4089 3.06819 28.416 3.17493 28.4373 3.21763C28.4587 3.26745 28.4943 3.29591 28.5512 3.32438C28.5939 3.33861 28.6864 3.34573 28.843 3.34573H29.1134C29.2842 3.34573 29.4336 3.31726 29.5475 3.25322C29.6614 3.18917 29.761 3.09665 29.8464 2.96144C29.9318 2.82622 30.0101 2.63408 30.0884 2.37788H30.1951ZM23.712 0.349686C23.406 0.349686 23.1782 0.506249 23.0217 0.812257C22.8936 1.06133 22.8295 1.42428 22.8295 1.90108C22.8295 2.46329 22.9292 2.87604 23.1284 3.14647C23.2636 3.3315 23.4629 3.42401 23.7049 3.42401C23.8757 3.42401 24.0109 3.38131 24.1247 3.30303C24.2671 3.19628 24.3809 3.0326 24.4592 2.80487C24.5375 2.57715 24.5802 2.27825 24.5802 1.91531C24.5802 1.48121 24.5375 1.15385 24.4592 0.940358C24.3809 0.726863 24.2742 0.570299 24.1461 0.484901C24.0251 0.399503 23.8757 0.349686 23.712 0.349686ZM23.6835 0.200242C24.2101 0.178892 24.6371 0.335457 24.9645 0.655698C25.2918 0.983057 25.4555 1.38869 25.4555 1.87262C25.4555 2.29249 25.3345 2.65543 25.0855 2.97567C24.7581 3.39554 24.3026 3.60904 23.712 3.60904C23.1213 3.60904 22.6587 3.40978 22.3385 3.01125C22.0823 2.69101 21.9542 2.32095 21.9542 1.88685C21.9542 1.39581 22.1179 0.990171 22.4524 0.662813C22.7939 0.328338 23.1996 0.178892 23.6835 0.200242ZM19.9189 0.164659V1.32465H19.8335C19.7267 1.01152 19.5631 0.769561 19.3424 0.605882C19.129 0.442203 18.887 0.356805 18.6308 0.356805C18.3817 0.356805 18.1825 0.427967 18.0188 0.563181C17.8551 0.698394 17.7412 0.897658 17.6701 1.13962C17.5989 1.3887 17.5704 1.63777 17.5704 1.90108C17.5704 2.21421 17.606 2.49175 17.6843 2.73371C17.7555 2.96855 17.8764 3.14647 18.0472 3.26033C18.2109 3.37419 18.4102 3.43113 18.6379 3.43113C18.7162 3.43113 18.8016 3.42401 18.8799 3.40266C18.9653 3.38843 19.0507 3.35996 19.1361 3.33149V2.64831C19.1361 2.5131 19.129 2.43482 19.1076 2.39212C19.0934 2.35654 19.0507 2.32095 18.9937 2.28537C18.9368 2.2569 18.8728 2.23555 18.7945 2.23555H18.7091V2.15016H20.3103V2.23555C20.1893 2.24267 20.1039 2.2569 20.0541 2.28537C20.0043 2.31384 19.9687 2.35653 19.9402 2.41347C19.926 2.44193 19.9189 2.52021 19.9189 2.64119V3.32438C19.7054 3.41689 19.4919 3.48806 19.2642 3.53787C19.0364 3.58769 18.8016 3.60904 18.5596 3.60904C18.2465 3.60904 17.9903 3.56634 17.7839 3.48094C17.5776 3.39554 17.3925 3.28168 17.236 3.14647C17.0794 3.01125 16.9584 2.85469 16.8659 2.67678C16.752 2.45617 16.6951 2.20709 16.6951 1.92955C16.6951 1.43139 16.8659 1.01864 17.2146 0.677047C17.5633 0.335456 18.0045 0.164659 18.5312 0.164659C18.6948 0.164659 18.8443 0.178892 18.9724 0.200242C19.0436 0.214475 19.1574 0.250057 19.3211 0.306989C19.4777 0.371037 19.5773 0.399502 19.6058 0.399502C19.6485 0.399502 19.6912 0.385268 19.7339 0.349686C19.7694 0.314104 19.805 0.257175 19.8406 0.157544H19.9189V0.164659ZM12.717 0.235824L14.3395 2.27826V0.862074C14.3395 0.662812 14.3111 0.527598 14.2542 0.456433C14.1759 0.363919 14.0478 0.314106 13.8627 0.321223V0.235824H14.9516V0.321223C14.8092 0.342572 14.7167 0.363922 14.674 0.392388C14.6242 0.420853 14.5886 0.470669 14.5602 0.534717C14.5317 0.598766 14.5175 0.71263 14.5175 0.869193V3.60904H14.4321L12.2117 0.862074V2.96144C12.2117 3.15358 12.2544 3.28168 12.3398 3.34573C12.4252 3.40978 12.5248 3.44536 12.6387 3.44536H12.717V3.53076H11.5428V3.44536C11.7278 3.44536 11.8488 3.40978 11.9199 3.33149C11.9911 3.26033 12.0267 3.13223 12.0267 2.95432V0.627231L11.9555 0.541832C11.8844 0.449318 11.8274 0.392386 11.7705 0.36392C11.7207 0.335454 11.6424 0.32122 11.5428 0.314104V0.235824H12.717ZM8.1482 0.349686C7.84219 0.349686 7.61446 0.506249 7.4579 0.812257C7.3298 1.06133 7.26575 1.42428 7.26575 1.90108C7.26575 2.46329 7.36538 2.87604 7.56465 3.14647C7.69986 3.3315 7.89912 3.42401 8.14108 3.42401C8.30476 3.42401 8.44709 3.38131 8.56095 3.30303C8.70328 3.19628 8.81715 3.0326 8.89543 2.80487C8.97371 2.57715 9.01641 2.27825 9.01641 1.91531C9.01641 1.48121 8.97371 1.15385 8.89543 0.940358C8.81715 0.726863 8.7104 0.570299 8.5823 0.484901C8.45421 0.399503 8.31188 0.349686 8.1482 0.349686ZM8.11973 0.200242C8.64635 0.178892 9.07334 0.335457 9.4007 0.655698C9.72806 0.983057 9.89174 1.38869 9.89174 1.87262C9.89174 2.29249 9.77076 2.65543 9.52168 2.97567C9.20144 3.39554 8.73887 3.60904 8.1482 3.60904C7.55753 3.60904 7.09496 3.40978 6.77471 3.01125C6.51852 2.69101 6.39042 2.32095 6.39042 1.88685C6.39042 1.39581 6.5541 0.990171 6.88858 0.662813C7.22305 0.328338 7.62869 0.178892 8.11973 0.200242ZM2.46212 2.40635L3.36591 0.235824H4.6967V0.321223H4.58995C4.49032 0.321223 4.41915 0.335457 4.35511 0.371039C4.31241 0.392388 4.28394 0.435086 4.25548 0.484901C4.24124 0.5276 4.22701 0.62723 4.22701 0.790909V2.96144C4.22701 3.13223 4.23413 3.23898 4.25548 3.28168C4.27682 3.32438 4.31241 3.35996 4.36222 3.39555C4.41915 3.43113 4.49032 3.44536 4.58283 3.44536H4.68958V3.53076H2.98162V3.44536H3.08837C3.18088 3.44536 3.25917 3.43113 3.32321 3.39555C3.36591 3.3742 3.39438 3.3315 3.42284 3.27456C3.43708 3.23898 3.45131 3.13224 3.45131 2.96856V0.527598L2.18457 3.53076H2.12764L0.846673 0.556066V2.86892C0.846673 3.0326 0.85379 3.13223 0.860906 3.16782C0.882256 3.2461 0.924955 3.31726 0.99612 3.36708C1.06728 3.41689 1.17403 3.44536 1.33059 3.44536V3.53076H0.191956V3.44536H0.227538C0.298703 3.44536 0.369868 3.43824 0.433916 3.40977C0.497965 3.38131 0.54778 3.35285 0.576246 3.31015C0.611829 3.26745 0.633178 3.21052 0.654528 3.13223C0.654528 3.11088 0.661644 3.0326 0.661644 2.88316V0.798028C0.661644 0.627232 0.654528 0.520485 0.633178 0.477786C0.618945 0.435087 0.576246 0.399502 0.526431 0.36392C0.469499 0.328337 0.398334 0.314104 0.30582 0.314104H0.191956V0.235824H1.53697L2.46212 2.40635Z" fill="black"/>
</svg>
