<svg width="86" height="29" viewBox="0 0 86 29" fill="none" 
    xmlns="http://www.w3.org/2000/svg">
    <path d="M75.9686 2.73478C75.6412 2.46436 74.8513 2.27933 73.5988 2.18681L73.7909 1.46093H85.4976L85.2698 2.18681C84.2095 2.18681 83.3982 2.45012 82.836 2.96963C82.2738 3.48913 81.7828 4.57796 81.3629 6.22898L76.9791 23.1876C76.6589 24.3832 76.5023 25.1873 76.5023 25.593C76.5023 26.0627 76.666 26.4256 77.0005 26.6889C77.4275 27.0305 78.2245 27.2084 79.4058 27.2369L79.2279 27.9628H67.322L67.5142 27.2369C68.7026 27.2369 69.578 26.9878 70.133 26.4825C70.6881 25.9844 71.1863 24.8813 71.6346 23.1947L76.054 6.2361C76.3244 5.19709 76.4596 4.40716 76.4596 3.87342C76.4667 3.38238 76.2959 3.00521 75.9686 2.73478ZM60.0276 15.0321C60.6539 15.3025 61.1591 15.7722 61.5577 16.4554C61.9562 17.1386 62.1483 17.9214 62.1483 18.8109C62.1483 20.6612 61.6359 22.3977 60.6112 24.0202C59.5864 25.6428 57.7575 26.4541 55.1315 26.4541C54.8397 26.4541 54.3914 26.4398 53.8078 26.4114L56.8679 14.6336C58.3481 14.6264 59.4085 14.7617 60.0276 15.0321ZM59.992 2.89135L60.967 2.84865C61.9348 2.82018 62.7034 3.12619 63.2799 3.76667C63.8563 4.40716 64.1481 5.23267 64.1481 6.25033C64.1481 7.33204 63.8705 8.4778 63.3083 9.69472C62.7461 10.9116 62.006 11.787 61.0809 12.3207C60.1557 12.8544 58.889 13.132 57.2878 13.1604L59.992 2.89135ZM51.6871 2.18681C52.8542 2.23663 53.6085 2.41454 53.9572 2.71343C54.306 3.01233 54.4768 3.3895 54.4768 3.84496C54.4768 4.40716 54.2561 5.51022 53.822 7.16836L49.545 23.458C49.2034 24.7603 48.9045 25.6143 48.6555 26.0271C48.3993 26.4398 48.0648 26.7387 47.6449 26.938C47.225 27.1301 46.5347 27.2298 45.5669 27.2298L45.3392 27.9556H55.3094C59.0455 27.9556 61.6146 27.6496 63.0165 27.0447C64.4185 26.4398 65.5429 25.4791 66.3969 24.1768C67.2437 22.8673 67.6707 21.5437 67.6707 20.1987C67.6707 18.7682 67.2366 17.5086 66.3827 16.4269C65.5216 15.3452 63.9844 14.4628 61.7712 13.7725C63.9061 13.2387 65.486 12.6552 66.5179 12.0218C67.5498 11.3884 68.3255 10.5843 68.845 9.60932C69.3645 8.63436 69.6207 7.67363 69.6207 6.73425C69.6207 5.5885 69.2933 4.56372 68.6386 3.65993C67.9839 2.75613 67.0587 2.14412 65.8703 1.83099C64.9594 1.58191 63.4507 1.46093 61.3442 1.46093H51.865L51.6871 2.18681ZM41.3468 3.63858C40.7419 2.84153 39.9876 2.43589 39.0909 2.43589C38.1586 2.43589 37.3687 2.62092 36.714 2.99098C36.0593 3.36104 35.3761 3.98729 34.6715 4.8555C33.967 5.73083 33.2482 6.97622 32.5152 8.59878C31.7822 10.2213 31.0991 12.4274 30.4586 15.21C29.8181 17.9997 29.4979 20.3196 29.4979 22.1842C29.4979 23.7711 29.811 24.9738 30.4372 25.7851C31.0635 26.5964 31.8605 27.0092 32.8426 27.0092C34.1378 27.0092 35.2409 26.5323 36.1447 25.5859C37.9451 23.7 39.4182 20.9245 40.5569 17.2738C41.6955 13.623 42.2648 10.3708 42.2648 7.51707C42.2506 5.73795 41.9517 4.44274 41.3468 3.63858ZM38.6852 26.9166C36.8919 28.0268 34.7 28.5748 32.1096 28.5748C30.1739 28.5748 28.6154 28.1407 27.427 27.2653C26.2385 26.39 25.3418 25.2016 24.7512 23.6929C24.1534 22.1842 23.8616 20.7111 23.8616 19.2806C23.8616 16.3913 24.6088 13.4736 26.1033 10.5416C27.5977 7.60247 29.6188 5.25402 32.1594 3.48913C34.7 1.72424 37.205 0.841797 39.6816 0.841797C41.1333 0.841797 42.5068 1.24744 43.8091 2.0516C45.1114 2.86288 46.122 3.98729 46.8479 5.43194C47.5738 6.87659 47.9367 8.33547 47.9367 9.80858C47.9367 13.1035 46.9902 16.4056 45.0901 19.7219C43.1829 23.031 41.055 25.4293 38.6852 26.9166ZM24.5092 0.856029C23.6552 2.03737 22.2604 1.85234 21.0648 1.51786C20.0329 1.21897 18.4958 0.870262 16.8376 0.856029C12.8453 0.856029 9.27277 2.11565 6.12728 4.62777C2.10646 7.87289 0.0996094 11.9933 0.0996094 16.9891C0.0996094 19.3305 0.583531 21.4227 1.55849 23.2588C2.53345 25.0948 3.75749 26.4327 5.23772 27.2796C6.71795 28.1264 8.51131 28.5463 10.6178 28.5463C13.3505 28.5463 15.9552 28.0268 18.4317 26.9807L21.5558 14.8471H13.2367L13.0587 15.5872C13.9625 15.5872 14.603 15.7509 14.9731 16.0853C15.3431 16.4198 15.5282 16.8254 15.5282 17.3094C15.5282 17.6723 15.3716 18.4409 15.0656 19.6151L13.2367 26.6249C12.3756 27.002 11.6426 27.1942 11.0448 27.1942C9.62148 27.1942 8.37609 26.5039 7.31574 25.1304C6.24826 23.7569 5.72164 21.7643 5.72164 19.1597C5.72164 16.128 6.31943 13.2316 7.515 10.4775C8.71057 7.72345 10.1552 5.68813 11.8561 4.36446C13.5569 3.04079 15.2506 2.37896 16.9444 2.37896C18.5954 2.37896 19.8764 2.91981 20.7873 4.00864C21.6982 5.09746 22.2034 6.87658 22.296 9.35312H22.9649L25.1497 0.856029H24.5092Z" fill="black"/>
</svg>
